<svg xmlns="http://www.w3.org/2000/svg" xmlns:xlink="http://www.w3.org/1999/xlink" xml:space="preserve" width="512" height="512"><defs><linearGradient id="a"><stop offset="0" stop-color="#0af"/><stop offset="1" stop-color="#6f3399"/></linearGradient><linearGradient xlink:href="#a" id="b" x1="400.9" x2="112.9" y1="104.6" y2="407.4" gradientUnits="userSpaceOnUse"/></defs><circle cx="256" cy="256" r="204.8" fill="url(#b)"/><path fill="#fff" stroke="#000" stroke-linejoin="bevel" stroke-width="2" d="M256 135c-26 0-58 18-58 53v29h24v-29c1-15 10-28 34-29 24 1 33 14 34 29v29h24v-29c0-35-32-53-58-53Zm-63 82c-13 0-23 10-23 23v114c0 13 10 23 23 23h126c13 0 23-10 23-23V240c0-13-10-23-23-23zm63 51a29 29 0 0 1 29 29 29 29 0 0 1-29 29 29 29 0 0 1-29-29 29 29 0 0 1 29-29Z"/></svg>