<svg xmlns="http://www.w3.org/2000/svg" width="96" height="98" fill="none"><g filter="url(#a)" transform="translate(-16 -16)"><circle cx="64" cy="64" r="48" fill="url(#b)"/></g><g filter="url(#c)" transform="translate(-16 -16)"><path fill="#f4f5ff" d="M48.3 91.1a5 5 0 0 1-3.8-1.5 5 5 0 0 1-1.5-3.7V59.6a5 5 0 0 1 1.5-3.7 5 5 0 0 1 3.8-1.5h2.6V49A13 13 0 0 1 64 35.9 13 13 0 0 1 77.1 49v5.3h2.7a5 5 0 0 1 3.7 1.5 5 5 0 0 1 1.5 3.7V86a5 5 0 0 1-1.5 3.7 5 5 0 0 1-3.7 1.5zM64 78a5 5 0 0 0 3.7-1.5 5 5 0 0 0 1.6-3.7 5 5 0 0 0-1.6-3.8 5 5 0 0 0-3.7-1.5 5 5 0 0 0-3.7 1.5 5 5 0 0 0-1.5 3.7 5 5 0 0 0 1.5 3.8A5 5 0 0 0 64 78Zm-7.9-23.6H72V49c0-2.2-.8-4-2.3-5.6a7.6 7.6 0 0 0-5.6-2.3c-2.2 0-4 .8-5.6 2.3a7.6 7.6 0 0 0-2.3 5.6z"/></g><defs><filter id="a" width="96" height="98" x="16" y="16" color-interpolation-filters="sRGB" filterUnits="userSpaceOnUse"><feFlood flood-opacity="0" result="BackgroundImageFix"/><feColorMatrix in="SourceAlpha" result="hardAlpha" values="0 0 0 0 0 0 0 0 0 0 0 0 0 0 0 0 0 0 127 0"/><feOffset dy="2"/><feComposite in2="hardAlpha" operator="out"/><feColorMatrix values="0 0 0 0 0.466667 0 0 0 0 0.317647 0 0 0 0 0.47451 0 0 0 1 0"/><feBlend in2="BackgroundImageFix" result="effect1_dropShadow_475_2"/><feBlend in="SourceGraphic" in2="effect1_dropShadow_475_2" result="shape"/></filter><filter id="c" width="50" height="63.1" x="40" y="33" color-interpolation-filters="sRGB" filterUnits="userSpaceOnUse"><feFlood flood-opacity="0" result="BackgroundImageFix"/><feColorMatrix in="SourceAlpha" result="hardAlpha" values="0 0 0 0 0 0 0 0 0 0 0 0 0 0 0 0 0 0 127 0"/><feOffset dx="1" dy="1"/><feGaussianBlur stdDeviation="2"/><feComposite in2="hardAlpha" operator="out"/><feColorMatrix values="0 0 0 0 0 0 0 0 0 0 0 0 0 0 0 0 0 0 0.1 0"/><feBlend in2="BackgroundImageFix" result="effect1_dropShadow_475_2"/><feBlend in="SourceGraphic" in2="effect1_dropShadow_475_2" result="shape"/></filter><linearGradient id="b" x1="99.5" x2="42.5" y1="16" y2="112" gradientUnits="userSpaceOnUse"><stop stop-color="#76C9F6"/><stop offset="1" stop-color="#715680"/></linearGradient></defs></svg>