<?xml version="1.0" encoding="UTF-8" standalone="no"?>
<svg
   width="96"
   height="96"
   viewBox="0 0 96 96"
   fill="none"
   version="1.1"
   id="svg7"
   xmlns="http://www.w3.org/2000/svg"
   xmlns:svg="http://www.w3.org/2000/svg">
  <path
     id="circle1"
     style="fill:url(#paint0_linear_475_2)"
     d="M 48,0 A 48,48 0 0 0 0,48 48,48 0 0 0 48,96 48,48 0 0 0 96,48 48,48 0 0 0 48,0 Z" />
  <g
     filter="url(#filter1_d_475_2)"
     id="g2"
     transform="translate(-16,-15.628125)">
    <path
       d="m 48.25,91.190627 c -1.4437,0 -2.6801,-0.5145 -3.7091,-1.5435 -1.029,-1.029 -1.5426,-2.2645 -1.5409,-3.7065 v -26.25 c 0,-1.4438 0.5145,-2.6801 1.5435,-3.7091 1.029,-1.029 2.2645,-1.5427 3.7065,-1.5409 h 2.625 v -5.25 c 0,-3.6313 1.2801,-6.727 3.8404,-9.2872 2.5602,-2.5603 5.6551,-3.8395 9.2846,-3.8378 3.6312,0 6.727,1.2801 9.2872,3.8404 2.5603,2.5602 3.8395,5.6551 3.8378,9.2846 v 5.25 h 2.625 c 1.4437,0 2.6801,0.5145 3.7091,1.5435 1.029,1.029 1.5426,2.2645 1.5409,3.7065 v 26.25 c 0,1.4437 -0.5145,2.6801 -1.5435,3.7091 -1.029,1.029 -2.2645,1.5426 -3.7065,1.5409 z M 64,78.065627 c 1.4437,0 2.6801,-0.5145 3.7091,-1.5435 1.029,-1.029 1.5426,-2.2645 1.5409,-3.7065 0,-1.4438 -0.5145,-2.6801 -1.5435,-3.7091 -1.029,-1.029 -2.2645,-1.5427 -3.7065,-1.5409 -1.4438,0 -2.6801,0.5145 -3.7091,1.5435 -1.029,1.029 -1.5426,2.2645 -1.5409,3.7065 0,1.4437 0.5145,2.6801 1.5435,3.7091 1.029,1.029 2.2645,1.5426 3.7065,1.5409 z m -7.875,-23.625 h 15.75 v -5.25 c 0,-2.1875 -0.7656,-4.0469 -2.2969,-5.5781 -1.5312,-1.5313 -3.3906,-2.2969 -5.5781,-2.2969 -2.1875,0 -4.0469,0.7656 -5.5781,2.2969 -1.5313,1.5312 -2.2969,3.3906 -2.2969,5.5781 z"
       fill="#f4f5ff"
       id="path1" />
  </g>
  <defs
     id="defs7">
    <filter
       id="filter1_d_475_2"
       x="40"
       y="33"
       width="50"
       height="63.125"
       filterUnits="userSpaceOnUse"
       color-interpolation-filters="sRGB">
      <feFlood
         flood-opacity="0"
         result="BackgroundImageFix"
         id="feFlood4" />
      <feColorMatrix
         in="SourceAlpha"
         type="matrix"
         values="0 0 0 0 0 0 0 0 0 0 0 0 0 0 0 0 0 0 127 0"
         result="hardAlpha"
         id="feColorMatrix4" />
      <feOffset
         dx="1"
         dy="1"
         id="feOffset4" />
      <feGaussianBlur
         stdDeviation="2"
         id="feGaussianBlur4" />
      <feComposite
         in2="hardAlpha"
         operator="out"
         id="feComposite4" />
      <feColorMatrix
         type="matrix"
         values="0 0 0 0 0 0 0 0 0 0 0 0 0 0 0 0 0 0 0.1 0"
         id="feColorMatrix5" />
      <feBlend
         mode="normal"
         in2="BackgroundImageFix"
         result="effect1_dropShadow_475_2"
         id="feBlend5" />
      <feBlend
         mode="normal"
         in="SourceGraphic"
         in2="effect1_dropShadow_475_2"
         result="shape"
         id="feBlend6" />
    </filter>
    <linearGradient
       id="paint0_linear_475_2"
       x1="99.5"
       y1="16"
       x2="42.5"
       y2="112"
       gradientUnits="userSpaceOnUse"
       gradientTransform="translate(-16,-16)">
      <stop
         stop-color="#76C9F6"
         id="stop6" />
      <stop
         offset="1"
         stop-color="#715680"
         id="stop7" />
    </linearGradient>
  </defs>
</svg>
