<?xml version="1.0" encoding="UTF-8" standalone="no"?>
<svg
   width="96"
   height="96"
   viewBox="0 0 96 96"
   fill="none"
   version="1.1"
   id="svg7"
   xmlns="http://www.w3.org/2000/svg"
   xmlns:svg="http://www.w3.org/2000/svg">
  <path
     id="path1"
     style="fill:#000000;fill-opacity:1"
     d="M 0,0 V 96 H 96 V 0 Z m 47.748047,20.408203 c 0.637218,-0.0095 1.276455,0.0305 1.914062,0.123047 6.577256,0.648068 11.930897,6.985731 11.462891,13.585938 V 38.8125 c 2.362246,-0.02361 5.129962,-0.242891 6.695312,1.939453 1.762453,2.110002 1.017947,4.954634 1.179688,7.46875 -0.01592,7.541005 0.03262,15.082952 -0.02344,22.623047 -0.207136,2.964312 -3.189469,5.097938 -6.058593,4.71875 H 32.25 C 29.077867,75.677665 26.572623,72.540172 27,69.480469 27.01596,60.830624 26.96733,52.180185 27.02344,43.53125 c 0.207149,-2.964284 3.189471,-5.098 6.058593,-4.71875 0.770453,-0.104547 2.178078,0.428078 1.792969,-0.832031 0.02743,-3.773483 -0.385652,-7.833653 1.814453,-11.148438 2.281227,-3.86682 6.598064,-6.357471 11.058594,-6.423828 z M 48.25,25.679688 c -1.363786,-0.06278 -2.740532,0.219245 -3.966797,0.904296 -2.879681,1.487864 -4.471345,4.767445 -4.158203,7.949219 V 38.8125 h 15.75 C 55.740348,36.049754 56.262808,33.180062 55.300781,30.527344 54.185312,27.630551 51.250329,25.817795 48.25,25.679688 Z m -0.386719,26.27539 c -1.503413,0.02195 -2.987352,0.644599 -3.933593,1.921875 -2.552996,2.825601 -0.714493,7.87366 3.027343,8.464844 L 47.46875,62.414062 48,62.4375 c 3.8041,0.182993 6.578863,-4.434345 4.646484,-7.714844 -0.886956,-1.833122 -2.850243,-2.795798 -4.783203,-2.767578 z" />
  <defs
     id="defs7" />
</svg>
